<svg version="1" xmlns="http://www.w3.org/2000/svg" width="682.667" height="682.667" viewBox="0 0 512.000000 512.000000"><path d="M305 65.9c-9 2.4-15.2 5.3-22.4 10.5-20.2 14.5-30.4 40.5-25 63.9 1.3 5.5 7.3 18.4 9.8 21 .6.7 2.1 2.5 3.3 4.2l2.2 3-52.1 52.2-52.1 52.2-6.1-4.4c-13.2-9.3-23.9-12.8-37.3-12.1-27.3 1.4-48.8 17.7-58.1 43.9-2.2 6.3-2.5 8.8-2.5 19.7 0 10.9.3 13.5 2.6 19.8 8.7 24.7 28.7 40.7 54.8 43.8 3 .3 5.5.7 5.6.8 0 0 .4 3 .8 6.6 2.4 22 17.4 42.5 37.8 51.4 16.2 7.2 35.8 7 52.2-.4 16.1-7.3 28.1-20.7 34.3-38.3 2.1-6 2.5-9 2.6-18.7 0-14.8-2.7-23-12.2-36l-4.1-5.5 52.1-52.2 52.1-52.2 6.1 4.4c16.3 11.5 32.4 14.9 49.4 10.5 20.1-5.1 34.8-17.4 43.6-36.3 8.8-18.9 6.5-43.7-5.6-61.5-10.3-15.2-27.9-25.8-46.3-27.7-3.3-.4-6.1-.7-6.2-.8-.1-.1-.4-2.9-.8-6.2-2.8-25.4-19.9-46.3-44.5-54.5-9-3-25.1-3.5-34-1.1zm24.5 31.6c4.2 1.1 10.2 5.1 14.2 9.4 7.6 8.1 9.9 19.7 6.3 31.3-1.1 3.5-2 6.8-2 7.4 0 1.4 17.1 18.4 18.6 18.4.6 0 3.1-.7 5.5-1.6 24.4-8.9 48.8 12.1 42.9 36.8-3.8 15.5-16.7 25.1-32.9 24.4-13.5-.6-19.3-5.5-33.4-28.2l-2.5-4.1-77.6 77.6c-47.8 47.7-77.1 77.7-76.1 77.9.8.2 1.5.8 1.5 1.3s.4.9 1 .9c1.7 0 14.9 8.9 19.4 13 14.7 13.6 11.4 39.2-6.4 49.6-14.2 8.3-33.8 3.6-42.5-10-3.7-6-4.4-8.1-5-16.1-.4-4.5 0-7.7 1.7-12.8l2.3-6.9-8.9-8.9c-5-4.9-9.5-8.9-10.2-8.9-.6 0-3.1.7-5.4 1.5-14.9 5.2-30.7.3-38.5-11.9-14-22.2 1.7-50.1 27.7-49.2 12.7.5 20.6 6.3 30.7 22.9 3 4.8 5.7 8.9 6 9 .3.1 35.3-34.6 77.7-77.1l77.1-77.4-4.1-2.5c-17.1-10.6-22.6-15.4-25.6-22.6-7.5-17.4 1.1-36.8 19-42.9 4.6-1.6 14.1-1.7 19.5-.3z"/></svg>